<svg xmlns="http://www.w3.org/2000/svg" width="28" height="28" viewBox="0 0 28 28" fill="none">
  <circle cx="14" cy="14" r="13.75" fill="white" stroke="#38B7FF" stroke-width="0.5"/>
  <path fill-rule="evenodd" clip-rule="evenodd" d="M14.6983 21.729C18.4269 21.3965 21.3965 18.4269 21.729 14.6983C21.7128 14.6994 21.6965 14.7 21.68 14.7H18.48C18.0934 14.7 17.78 14.3866 17.78 14C17.78 13.6134 18.0934 13.3 18.48 13.3H21.68C21.6965 13.3 21.7128 13.3006 21.729 13.3017C21.3965 9.57318 18.4268 6.60355 14.6983 6.27103C14.6994 6.2872 14.7 6.30351 14.7 6.31996V9.51996C14.7 9.90656 14.3866 10.22 14 10.22C13.6134 10.22 13.3 9.90656 13.3 9.51996V6.31996C13.3 6.30351 13.3006 6.2872 13.3017 6.27104C9.5732 6.60359 6.60359 9.57321 6.27104 13.3017C6.28724 13.3006 6.30359 13.3 6.32007 13.3H9.52007C9.90667 13.3 10.2201 13.6134 10.2201 14C10.2201 14.3866 9.90667 14.7 9.52007 14.7H6.32007C6.30358 14.7 6.28723 14.6994 6.27103 14.6983C6.60355 18.4268 9.57318 21.3965 13.3017 21.729C13.3006 21.7128 13.3 21.6965 13.3 21.68V18.48C13.3 18.0934 13.6134 17.78 14 17.78C14.3866 17.78 14.7 18.0934 14.7 18.48V21.68C14.7 21.6965 14.6994 21.7128 14.6983 21.729ZM14 22.96C18.9485 22.96 22.96 18.9485 22.96 14C22.96 9.05157 18.9485 5.04004 14 5.04004C9.05157 5.04004 5.04004 9.05157 5.04004 14C5.04004 18.9485 9.05157 22.96 14 22.96Z" fill="url(#paint0_linear_1_2759)"/>
  <defs>
    <linearGradient id="paint0_linear_1_2759" x1="14" y1="15.28" x2="6.64004" y2="9.20004" gradientUnits="userSpaceOnUse">
      <stop stop-color="#38B7FF"/>
      <stop offset="1" stop-color="#7EFFDE"/>
    </linearGradient>
  </defs>
</svg>