<svg width="28" height="28" viewBox="0 0 28 28" fill="none" xmlns="http://www.w3.org/2000/svg">
<circle cx="14" cy="14" r="14" fill="#38B7FF"/>
<path d="M20.4615 8.82609H18.2226L17.1217 7.27087C17.0627 7.18759 16.9829 7.11931 16.8892 7.07206C16.7955 7.02481 16.6909 7.00006 16.5846 7H11.4154C11.3091 7.00006 11.2045 7.02481 11.1108 7.07206C11.0171 7.11931 10.9372 7.18759 10.8783 7.27087L9.77658 8.82609H7.53846C7.02435 8.82609 6.53129 9.01848 6.16776 9.36094C5.80423 9.70339 5.6 10.1679 5.6 10.6522V19.1739C5.6 19.6582 5.80423 20.1227 6.16776 20.4652C6.53129 20.8076 7.02435 21 7.53846 21H20.4615C20.9756 21 21.4687 20.8076 21.8322 20.4652C22.1958 20.1227 22.4 19.6582 22.4 19.1739V10.6522C22.4 10.1679 22.1958 9.70339 21.8322 9.36094C21.4687 9.01848 20.9756 8.82609 20.4615 8.82609ZM16.9077 14.6087C16.9077 15.1504 16.7372 15.68 16.4177 16.1305C16.0982 16.5809 15.644 16.932 15.1127 17.1393C14.5814 17.3466 13.9968 17.4009 13.4327 17.2952C12.8687 17.1895 12.3506 16.9286 11.9439 16.5456C11.5373 16.1625 11.2604 15.6744 11.1482 15.1431C11.036 14.6117 11.0936 14.061 11.3136 13.5605C11.5337 13.06 11.9064 12.6322 12.3846 12.3312C12.8627 12.0302 13.4249 11.8696 14 11.8696C14.7712 11.8696 15.5107 12.1582 16.056 12.6718C16.6013 13.1855 16.9077 13.8822 16.9077 14.6087Z" fill="white"/>
</svg>
