<svg width="22" height="20" viewBox="0 0 22 20" fill="none" xmlns="http://www.w3.org/2000/svg">
<path d="M3.92513 15.33C2.7317 14.1996 1.79034 12.83 1.16263 11.3108C1.05533 11.061 1 10.7919 1 10.52C1 10.2481 1.05533 9.97898 1.16263 9.72914C1.99648 7.69907 3.39512 5.95078 5.19263 4.69163C6.89834 3.49966 8.94068 2.88468 11.021 2.93663C12.5176 2.89946 14.0021 3.2149 15.3543 3.85747M18.1276 5.7208C19.3142 6.85054 20.2514 8.21585 20.8793 9.72914C20.9866 9.97898 21.0419 10.2481 21.0419 10.52C21.0419 10.7919 20.9866 11.061 20.8793 11.3108C20.0454 13.3409 18.6468 15.0892 16.8493 16.3483C15.1436 17.5403 13.1012 18.1553 11.021 18.1033C9.52429 18.1405 8.03986 17.825 6.68763 17.1825" stroke="#B9B9B9" stroke-width="1.5" stroke-linecap="round" stroke-linejoin="round"/>
<path d="M7.4568 11.7874C7.3044 11.3823 7.2273 10.9527 7.2293 10.5199C7.2293 9.51431 7.62878 8.54988 8.33985 7.83881C9.05093 7.12773 10.0154 6.72825 11.021 6.72825C11.4543 6.72608 11.8833 6.80409 12.2885 6.95575M14.5851 9.25242C14.7368 9.65759 14.8148 10.0866 14.8126 10.5199C14.8126 11.5255 14.4132 12.49 13.7021 13.201C12.991 13.9121 12.0266 14.3116 11.021 14.3116C10.5881 14.3136 10.1586 14.2365 9.75347 14.0841M1.27097 18.6666L18.6043 1.33325" stroke="#B9B9B9" stroke-width="1.5" stroke-linecap="round" stroke-linejoin="round"/>
</svg>
